<svg width="current" height="current" viewBox="0 0 600 600" fill="none" xmlns="http://www.w3.org/2000/svg">
<path fill-rule="evenodd" clip-rule="evenodd" d="M396.18 92.269C396.18 85.493 390.687 80 383.911 80H158.926C152.15 80 146.657 85.493 146.657 92.269V102.763C146.657 108.906 151.637 113.886 157.78 113.886C161.193 113.886 163.988 116.599 164.09 120.011L164.164 122.511H138.206C115.003 122.511 97.1593 143.027 100.376 166.005L100.999 170.459C106.435 209.292 130.762 242.909 165.95 260.212L171.917 263.147L181.845 268.029C192.78 285.008 209.053 298.224 228.292 305.304C237.23 308.594 243.936 316.903 243.21 326.399L237.542 400.455C237.04 407.015 231.571 412.082 224.992 412.082C216.776 412.082 210.116 418.742 210.116 426.958V453.977H329.641V426.211C329.641 418.408 323.315 412.082 315.512 412.082C309.24 412.082 304.034 407.235 303.587 400.979L298.24 326.119C297.567 316.698 304.203 308.471 313.054 305.172C330.744 298.579 345.904 286.791 356.68 271.664L374 263.147L379.968 260.212C415.156 242.909 439.482 209.292 444.918 170.459L445.542 166.005C448.758 143.027 430.914 122.511 407.712 122.511H378.518L378.641 119.937C378.802 116.549 381.596 113.886 384.987 113.886C391.169 113.886 396.18 108.874 396.18 102.693V92.269ZM374 217.392L377.58 142.227H407.712C418.939 142.227 427.573 152.154 426.016 163.272L425.393 167.725C421.005 199.072 401.847 226.339 374 241.123V217.392ZM138.206 142.227H164.751L166.988 217.392C166.988 225.158 167.933 232.703 169.715 239.918C143.062 224.886 124.795 198.239 120.524 167.725L119.901 163.272C118.344 152.154 126.979 142.227 138.206 142.227Z" fill="#3B71F0"/>
<path d="M289.331 250.56C286.934 243.65 291.012 236.178 298.12 234.455C304.706 232.859 311.353 236.849 313.041 243.413L317.601 261.148L315.154 279.591L292.208 279.264C288.565 279.212 285.398 276.749 284.449 273.231C283.454 269.54 285.156 265.653 288.544 263.881L291.426 262.373C292.4 261.863 292.854 260.717 292.494 259.678L289.331 250.56Z" fill="#F6C6B0"/>
<path fill-rule="evenodd" clip-rule="evenodd" d="M418.831 284.219L316.856 253.738C315.31 253.275 313.636 253.743 312.553 254.94L310.694 256.994C306.161 262.005 304.107 268.782 305.098 275.466C305.533 278.403 307.563 280.855 310.367 281.83L395.539 311.455C396.539 311.803 397.166 312.796 397.051 313.849L375.238 512.398C375.151 513.192 374.656 513.881 373.927 514.208C373.552 514.376 373.168 514.547 372.777 514.721C364.112 518.576 351.954 523.985 350.288 536.901C350.125 538.171 351.165 539.237 352.445 539.237H410L421 434L442.5 539.237H498.346C497.589 531.474 491.872 515.496 475.06 513.678L453.33 394.441C453.099 393.178 453.949 391.982 455.204 391.716C472.296 388.099 502.89 370.965 502.89 343.288C502.89 306.37 458.589 294.443 451.205 292.739L418.831 284.219ZM474.492 341.016C474.492 327.385 460.844 323.409 453.477 323.409V363.167C460.493 361.93 474.492 355.441 474.492 341.016Z" fill="black"/>
<rect x="83.1373" y="355.566" width="19" height="27" transform="rotate(-37.4743 83.1373 355.566)" fill="#1E53D1"/>
<rect x="116.195" y="286.468" width="19" height="27" transform="rotate(-119.974 116.195 286.468)" fill="#BED1FF"/>
<rect x="485.883" y="132.948" width="19" height="27" transform="rotate(-119.974 485.883 132.948)" fill="#1E53D1"/>
<rect x="395.39" y="44.5597" width="19" height="27" transform="rotate(-37.4743 395.39 44.5597)" fill="#3F78FF"/>
<rect x="231" y="27.5597" width="19" height="27" transform="rotate(-37.4743 231 27.5597)" fill="#1E53D1"/>
<rect x="514.175" y="283.255" width="19" height="27" transform="rotate(24.7754 514.175 283.255)" fill="#3B71F0"/>
<rect x="57" y="207.421" width="19" height="27" transform="rotate(-73.1616 57 207.421)" fill="#8AADFF"/>
<rect x="509.39" y="220.185" width="19" height="27" transform="rotate(-73.1616 509.39 220.185)" fill="#BED1FF"/>
<rect x="511.39" y="450.185" width="19" height="27" transform="rotate(-73.1616 511.39 450.185)" fill="#8AADFF"/>
<rect x="335.705" y="361" width="19" height="27" transform="rotate(24.7754 335.705 361)" fill="#BED1FF"/>
<rect x="83.7048" y="496" width="19" height="27" transform="rotate(24.7754 83.7048 496)" fill="#8AADFF"/>
<rect x="112.705" y="64" width="19" height="27" transform="rotate(24.7754 112.705 64)" fill="#3F78FF"/>
<path d="M447.61 387.756C442.667 380.304 444.33 370.299 451.418 364.846L453.602 363.167L470.381 380.692C475.087 385.607 474.536 393.508 469.192 397.722C463.898 401.896 456.168 400.659 452.441 395.041L447.61 387.756Z" fill="#F6C6B0"/>
<path d="M267.5 163L251.044 214.544H241.116L230.508 180.408L217.452 214.544H207.864L191 163H201.608L213.236 198.904L224.728 163.068H235.948L246.488 198.904L256.96 163H267.5Z" fill="url(#paint0_linear_409_1020)"/>
<path d="M274.158 163H284.494V214.544H274.158V163Z" fill="url(#paint1_linear_409_1020)"/>
<path d="M344.353 163V214.544H329.869L303.485 176.192V214.544H293.013V163H306.885L333.949 201.284V163H344.353Z" fill="url(#paint2_linear_409_1020)"/>
<rect x="191" y="453.977" width="165.117" height="85.0228" fill="#8AADFF"/>
<path d="M390.236 248.552C392.092 242.687 393.588 231.301 394 225.949L438 214.449L461 237.449L459 264.949L447 274.449L436.404 276.341C434.152 276.743 432.012 277.597 429.897 278.47C422.255 281.622 413.669 280.965 404 277.449C395.205 273.491 391.309 262.571 389.591 254.555C389.165 252.567 389.623 250.49 390.236 248.552Z" fill="#F6C6B0"/>
<path d="M416 264.449H441V290L424.144 290.303C419.67 290.383 416 286.778 416 282.304V264.449Z" fill="#F6C6B0"/>
<path d="M441 280.949V272.449V268.949C448.6 270.149 453.167 265.782 454.5 263.449C456 260.615 458.1 253.849 454.5 249.449C450.9 245.049 445.333 246.949 443 248.449C435.793 242.809 432.207 237.721 431.231 233.137C430.9 231.58 429.119 230.427 427.653 231.047C411.539 237.866 394.071 233.218 393.514 227.719C393.496 227.54 393.526 227.355 393.574 227.182C401.654 198.461 426.551 200.459 443 203.949C459.5 207.449 476.5 226.449 470.5 251.949C465.7 272.349 448.833 279.782 441 280.949Z" fill="black"/>
<rect x="397.757" y="239.449" width="7" height="9" rx="3.5" transform="rotate(4.82248 397.757 239.449)" fill="black"/>
<rect x="418.123" y="245.727" width="7" height="9" rx="3.5" transform="rotate(4.82248 418.123 245.727)" fill="black"/>
<path d="M404.303 260.449C404.838 261.658 406.701 264.057 409.867 263.982C413.034 263.908 414.366 262.46 415.247 261.56" stroke="black" stroke-width="3" stroke-linecap="round"/>
<defs>
<linearGradient id="paint0_linear_409_1020" x1="259.396" y1="-120.68" x2="259.639" y2="385.029" gradientUnits="userSpaceOnUse">
<stop stop-color="#3B71F0"/>
<stop offset="1" stop-color="#8AADFF"/>
</linearGradient>
<linearGradient id="paint1_linear_409_1020" x1="259.396" y1="-120.68" x2="259.639" y2="385.029" gradientUnits="userSpaceOnUse">
<stop stop-color="#3B71F0"/>
<stop offset="1" stop-color="#8AADFF"/>
</linearGradient>
<linearGradient id="paint2_linear_409_1020" x1="259.396" y1="-120.68" x2="259.639" y2="385.029" gradientUnits="userSpaceOnUse">
<stop stop-color="#3B71F0"/>
<stop offset="1" stop-color="#8AADFF"/>
</linearGradient>
</defs>
</svg>
