<svg width="current" height="current" viewBox="0 0 600 600" fill="none" xmlns="http://www.w3.org/2000/svg">
<rect x="298.728" y="16.5344" width="44.673" height="49.8676" rx="7.27236" fill="#7FA2F6"/>
<circle cx="321.065" cy="311.065" r="233.754" fill="white" stroke="#BED1FF" stroke-width="36.3618"/>
<path d="M320.026 174.448L332.172 250.029H307.88L320.026 174.448Z" fill="#BED1FF"/>
<path d="M316.909 447.681L304.763 372.101L329.055 372.101L316.909 447.681Z" fill="#BED1FF"/>
<path d="M243.865 235.628L285.235 257.5L268.696 275.293L243.865 235.628Z" fill="#BED1FF"/>
<path d="M392.186 382.18L350.245 359.777L366.785 341.984L392.186 382.18Z" fill="#BED1FF"/>
<path d="M182.371 308.276L257.951 296.13L257.951 320.422L182.371 308.276Z" fill="#BED1FF"/>
<path d="M455.603 311.393L380.023 323.539L380.023 299.246L455.603 311.393Z" fill="#BED1FF"/>
<path d="M243.55 384.437L265.422 343.067L283.215 359.606L243.55 384.437Z" fill="#BED1FF"/>
<path d="M390.102 236.116L367.699 278.056L349.906 261.517L390.102 236.116Z" fill="#BED1FF"/>
<circle cx="320.026" cy="311.065" r="59.7372" stroke="#BED1FF" stroke-width="8.31126"/>
<path d="M376.7 148.638C377.824 146.494 381.085 147.679 380.57 150.045L346.724 305.593L302.754 289.609L376.7 148.638Z" fill="#7FA2F6"/>
<path d="M263.34 472.427C262.215 474.571 258.954 473.386 259.469 471.02L293.315 315.472L337.285 331.456L263.34 472.427Z" fill="#BED1FF"/>
<circle cx="320.419" cy="310.954" r="23.3754" transform="rotate(19.9774 320.419 310.954)" fill="#BED1FF" stroke="#7FA2F6" stroke-width="9.35017"/>
<path d="M334.924 155.94H326.072L310.78 132.918V155.94H304.38V124.44H312.857L328.566 147.421V124.44H334.924V155.94Z" fill="#7FA2F6"/>
<path d="M323.039 499.486C321.266 499.763 319.548 499.721 317.886 499.361C316.251 499.029 314.589 498.406 312.899 497.491C311.403 496.632 310.184 495.621 309.242 494.458C308.3 493.294 307.663 492.255 307.33 491.341L313.148 489.18C313.287 489.568 313.578 490.011 314.021 490.51C314.464 491.008 315.074 491.479 315.849 491.923C317.096 492.588 318.19 493.017 319.132 493.211C320.074 493.377 321.169 493.363 322.415 493.169C322.776 493.086 323.177 492.975 323.621 492.837C324.091 492.698 324.549 492.532 324.992 492.338C325.435 492.117 325.795 491.881 326.072 491.632C326.349 491.355 326.557 491.078 326.696 490.801C326.917 490.413 327 489.97 326.945 489.471C326.89 488.972 326.696 488.543 326.363 488.183C326.058 487.878 325.435 487.559 324.493 487.227C323.579 486.894 322.041 486.451 319.88 485.897L317.595 485.315C315.877 484.872 314.45 484.276 313.315 483.528C312.733 483.14 312.206 482.739 311.735 482.323C311.292 481.88 310.987 481.547 310.821 481.326C309.935 480.19 309.353 478.763 309.076 477.046C308.826 475.328 308.965 473.832 309.491 472.557C310.156 470.812 311.251 469.427 312.774 468.402C314.326 467.349 315.974 466.712 317.72 466.49C319.299 466.296 321.002 466.338 322.831 466.615C324.659 466.892 326.405 467.501 328.067 468.443C329.425 469.164 330.519 469.981 331.35 470.895L326.613 475.051C326.308 474.718 325.795 474.372 325.075 474.012C323.995 473.402 322.9 473.015 321.792 472.848C320.712 472.654 319.617 472.613 318.509 472.724C317.706 472.835 317.027 473.07 316.473 473.43C315.919 473.763 315.531 474.275 315.309 474.968C315.198 475.3 315.157 475.674 315.185 476.09C315.24 476.505 315.42 476.921 315.725 477.336C316.113 477.835 316.501 478.181 316.888 478.375C317.138 478.514 317.429 478.639 317.761 478.749C318.094 478.86 318.537 478.985 319.091 479.123C319.091 479.151 319.119 479.165 319.174 479.165L321.335 479.747C323.995 480.467 326.017 481.146 327.402 481.783C328.815 482.42 329.923 483.085 330.727 483.778C331.447 484.415 332.029 485.218 332.472 486.188C332.943 487.158 333.178 488.238 333.178 489.429C333.206 490.621 332.957 491.826 332.43 493.045C332.015 494.014 331.405 494.942 330.602 495.829C329.826 496.716 328.857 497.45 327.693 498.031C326.862 498.392 326.045 498.696 325.241 498.946C324.438 499.223 323.704 499.403 323.039 499.486Z" fill="#7FA2F6"/>
<path d="M158.667 295.543L158.667 301.611L137.806 308.093L158.667 316.072L158.667 321.932L127.168 332.238L127.168 325.755L149.109 318.649L127.209 311.626L127.209 304.769L149.109 298.328L127.168 291.928L127.168 285.487L158.667 295.543Z" fill="#7FA2F6"/>
<path d="M504.573 319.438L504.573 303.356L498.63 303.356L498.63 318.067L492.355 318.067L492.355 303.356L485.582 303.356L485.582 319.438L479.307 319.438L479.307 297.123L510.806 297.123L510.806 319.438L504.573 319.438Z" fill="#7FA2F6"/>
<path d="M320.545 508.977L328.643 530.015H312.448L320.545 508.977Z" fill="#BED1FF"/>
<path d="M319.506 114.192L327.604 93.1539H311.409L319.506 114.192Z" fill="#BED1FF"/>
<path d="M517.938 311.584L538.976 303.487L538.976 319.682L517.938 311.584Z" fill="#BED1FF"/>
<path d="M123.153 312.623L102.115 304.526L102.115 320.721L123.153 312.623Z" fill="#BED1FF"/>
<path d="M30.9785 349.465C29.5286 334.109 43.7504 321.964 58.6905 325.8L68.2903 328.264V369.644H53.1517C41.6624 369.644 32.0585 360.904 30.9785 349.465Z" fill="#F6C6B0"/>
<path d="M185.894 211.205H158.127L67.2014 292.33V328.809H129.79C135.42 328.809 139.892 333.541 139.575 339.162L128.726 531.349C103.898 531.349 94.0615 552.765 92.2467 563.473H211.303C218.195 563.473 223.666 557.671 223.261 550.791L211.484 350.588L237.618 342.421C258.526 337.194 257.945 319.916 255.041 311.931L224.007 243.328C210.069 215.452 192.791 210.297 185.894 211.205Z" fill="black" stroke="black" stroke-width="1.08893"/>
<path d="M156.493 186.16H191.339L188.072 210.66L161.139 223.198C158.973 224.206 156.493 222.625 156.493 220.237V186.16Z" fill="#F6C6B0"/>
<path d="M148.326 264.562L133.081 191.604" stroke="#8AADFF" stroke-width="3.26678"/>
<path d="M121.717 169.446C122.525 163.355 122.292 153.821 121.747 145.153C121.249 137.236 126.551 130.007 134.339 128.498L183.645 118.943C188.167 118.066 192.842 119.281 196.365 122.248L222.054 143.881C227.86 148.77 229.185 157.185 225.162 163.622L212.151 184.439C209.365 188.896 204.48 191.604 199.223 191.604H195.328C190.738 191.604 186.509 193.831 182.932 196.709C171.345 206.033 154.993 207.261 145.604 204.671C134.944 201.731 125.603 188.243 121.965 178.869C120.812 175.898 121.299 172.605 121.717 169.446Z" fill="#F6C6B0"/>
<path d="M210.395 163.292C214.569 163.292 221.829 165.579 217.473 174.726C214.932 180.715 206.693 192.04 194.061 189.426L190.25 192.149C189.887 195.234 189.052 202.276 188.617 205.76L209.748 191.008C214.877 187.428 219.676 183.271 222.685 177.787C225.304 173.012 227.907 166.776 228.907 160.025L206.584 144.78L197.797 162.353C197.486 162.976 197.261 163.639 197.13 164.323L195.254 174.077C195.053 175.12 196.313 175.804 197.079 175.067L208.522 164.047C209.025 163.563 209.697 163.292 210.395 163.292Z" fill="black"/>
<path d="M195.15 165.47L148.871 264.562" stroke="#8AADFF" stroke-width="3.26678"/>
<ellipse cx="172.59" cy="133.412" rx="88.8519" ry="29.5644" transform="rotate(14.377 172.59 133.412)" fill="#3B71F0"/>
<path d="M144.402 88.7297L124.914 108.846L221.285 141.513L218.915 114.269C217.716 100.479 208.22 88.8183 194.958 84.8521L178.319 79.8761C166.247 76.2657 153.169 79.6795 144.402 88.7297Z" fill="#3B71F0"/>
<rect x="145.604" y="262.385" width="6.53356" height="8.71141" rx="1.08893" fill="#3B71F0"/>
<path d="M162.482 111.024C147.782 105.579 139.978 98.8638 136.893 96.323L128.181 106.123C128.181 108.846 132.762 115.002 139.615 119.19C149.415 125.18 161.394 129.535 178.816 133.347C195.509 136.998 210.395 135.524 220.74 131.713L219.107 118.102L202.773 119.19C188.617 119.19 177.183 116.468 162.482 111.024Z" fill="#2156D4"/>
<rect x="159.76" y="170.915" width="8.71141" height="15.245" rx="4.35571" fill="black"/>
<rect x="130.359" y="158.936" width="8.71141" height="15.245" rx="4.35571" fill="black"/>
<path d="M149.96 267.829L97.6913 283.074L60.1233 267.829L32.3557 238.428L68.2903 370.188L110.214 405.578L177.727 393.055L207.673 360.932L194.061 224.272L149.96 267.829Z" fill="#7FA2F6"/>
<path d="M32.3557 238.428L68.2903 370.188L60.1233 267.829L32.3557 238.428Z" fill="url(#paint0_linear_409_1015)"/>
<path d="M109.67 405.578L97.1469 283.074L59.5789 267.829L68.2903 370.188L109.67 405.578Z" fill="url(#paint1_linear_409_1015)"/>
<path d="M174.466 333.412C173.014 321.109 182.626 310.297 195.013 310.297H207.145L212.029 351.676H195.013C184.525 351.676 175.696 343.828 174.466 333.412Z" fill="#F6C6B0"/>
<path d="M161.394 328.264L149.96 267.829L170.105 248.228L161.394 328.264Z" fill="url(#paint2_linear_409_1015)"/>
<defs>
<linearGradient id="paint0_linear_409_1015" x1="32.3557" y1="213.383" x2="57.401" y2="332.076" gradientUnits="userSpaceOnUse">
<stop stop-color="#6285D8"/>
<stop offset="1" stop-color="#95B3F9"/>
</linearGradient>
<linearGradient id="paint1_linear_409_1015" x1="84.6242" y1="267.829" x2="84.6242" y2="405.578" gradientUnits="userSpaceOnUse">
<stop stop-color="#A3BEFF"/>
<stop offset="1" stop-color="#BED1FF" stop-opacity="0.2"/>
</linearGradient>
<linearGradient id="paint2_linear_409_1015" x1="160.032" y1="248.228" x2="160.032" y2="328.264" gradientUnits="userSpaceOnUse">
<stop stop-color="#A2BDFE"/>
<stop offset="1" stop-color="#A2BDFE" stop-opacity="0.2"/>
</linearGradient>
</defs>
</svg>
