<svg width="current" height="current" viewBox="0 0 600 600" fill="none" xmlns="http://www.w3.org/2000/svg">
<g clip-path="url(#clip0_409_1016)">
<rect x="151.15" y="108.661" width="29.1472" height="491.339" fill="#BED1FF"/>
<rect x="417.639" y="108.661" width="29.1472" height="491.339" fill="#BED1FF"/>
<circle cx="165.723" cy="287.708" r="96.8105" fill="#BED1FF" stroke="#3B71F0" stroke-width="12.4917"/>
<rect x="32.8211" y="95.5306" width="253.997" height="89.5237" rx="6.24584" transform="rotate(-14.7342 32.8211 95.5306)" fill="white" stroke="#7FA2F6" stroke-width="12.4917"/>
<rect x="301.226" y="165.463" width="184.817" height="184.817" rx="19.5828" transform="rotate(-45 301.226 165.463)" fill="#BED1FF" stroke="#3B71F0" stroke-width="16.6556"/>
<path d="M333.605 338.431C334.869 337.426 336.474 336.95 338.081 337.103L539.292 356.247C542.726 356.574 545.245 359.623 544.918 363.057L537.326 442.851C537 446.285 533.951 448.804 530.517 448.477L329.235 429.327C327.649 429.176 326.18 428.424 325.129 427.226L287.048 383.777C284.696 381.094 285.066 376.989 287.86 374.77L333.605 338.431L329.72 333.54L333.605 338.431Z" fill="white" stroke="#7FA2F6" stroke-width="12.4917"/>
<mask id="path-7-outside-1_409_1016" maskUnits="userSpaceOnUse" x="56.6695" y="59.1843" width="221.119" height="92.6954" fill="black">
<rect fill="white" x="56.6695" y="59.1843" width="221.119" height="92.6954"/>
<path d="M100.542 103.577L109.766 139.697L102.427 141.572L95.6979 115.22L90.1377 136.182L82.9421 138.02L67.9165 122.314L74.6459 148.666L67.3551 150.528L58.1311 114.407L68.7576 111.694L84.2162 128.101L89.82 106.315L100.542 103.577ZM138.856 93.7928L130.086 119.483L133.688 133.588L126.588 135.402L122.986 121.296L103.021 102.944L111.598 100.753L124.541 112.676L130.278 95.9832L138.856 93.7928ZM204.34 77.0701L202.033 116.136L195.075 117.912L181.533 95.889L178.492 122.147L171.773 123.863L150.731 90.7601L158.165 88.8618L172.739 111.941L174.379 84.772L182.242 82.7641L196.041 105.991L196.954 78.9563L204.34 77.0701ZM220.745 72.881L245.027 105.156L237.403 107.103L231.53 99.2123L215.852 103.216L214.482 112.956L206.857 114.903L212.692 74.9375L220.745 72.881ZM217.262 94.2266L225.982 91.9997L218.957 82.5759L217.262 94.2266ZM266.464 61.2059L257.695 86.8963L261.297 101.001L254.196 102.815L250.594 88.7095L230.629 70.3569L239.206 68.1665L252.149 80.0893L257.886 63.3963L266.464 61.2059Z"/>
</mask>
<path d="M100.542 103.577L109.766 139.697L102.427 141.572L95.6979 115.22L90.1377 136.182L82.9421 138.02L67.9165 122.314L74.6459 148.666L67.3551 150.528L58.1311 114.407L68.7576 111.694L84.2162 128.101L89.82 106.315L100.542 103.577ZM138.856 93.7928L130.086 119.483L133.688 133.588L126.588 135.402L122.986 121.296L103.021 102.944L111.598 100.753L124.541 112.676L130.278 95.9832L138.856 93.7928ZM204.34 77.0701L202.033 116.136L195.075 117.912L181.533 95.889L178.492 122.147L171.773 123.863L150.731 90.7601L158.165 88.8618L172.739 111.941L174.379 84.772L182.242 82.7641L196.041 105.991L196.954 78.9563L204.34 77.0701ZM220.745 72.881L245.027 105.156L237.403 107.103L231.53 99.2123L215.852 103.216L214.482 112.956L206.857 114.903L212.692 74.9375L220.745 72.881ZM217.262 94.2266L225.982 91.9997L218.957 82.5759L217.262 94.2266ZM266.464 61.2059L257.695 86.8963L261.297 101.001L254.196 102.815L250.594 88.7095L230.629 70.3569L239.206 68.1665L252.149 80.0893L257.886 63.3963L266.464 61.2059Z" fill="#7FA2F6"/>
<path d="M100.542 103.577L101.506 103.331L101.26 102.366L100.296 102.613L100.542 103.577ZM109.766 139.698L110.012 140.662L110.976 140.415L110.73 139.451L109.766 139.698ZM102.427 141.572L101.463 141.818L101.709 142.782L102.674 142.536L102.427 141.572ZM95.6979 115.22L96.6621 114.973L95.7162 111.269L94.7361 114.965L95.6979 115.22ZM90.1377 136.182L90.3839 137.146L90.9498 137.002L91.0995 136.437L90.1377 136.182ZM82.9421 138.02L82.2231 138.708L82.625 139.128L83.1884 138.984L82.9421 138.02ZM67.9165 122.314L68.6356 121.626L66.014 118.886L66.9523 122.56L67.9165 122.314ZM74.6459 148.666L74.8922 149.63L75.8563 149.384L75.6101 148.42L74.6459 148.666ZM67.3551 150.528L66.3909 150.774L66.6371 151.738L67.6013 151.492L67.3551 150.528ZM58.1311 114.407L57.8849 113.443L56.9207 113.689L57.1669 114.653L58.1311 114.407ZM68.7576 111.694L69.4819 111.011L69.0797 110.584L68.5114 110.729L68.7576 111.694ZM84.2162 128.101L83.4919 128.783L84.7301 130.097L85.1799 128.349L84.2162 128.101ZM89.82 106.315L89.5738 105.351L89.003 105.496L88.8562 106.067L89.82 106.315ZM99.5776 103.823L108.802 139.944L110.73 139.451L101.506 103.331L99.5776 103.823ZM109.52 138.733L102.181 140.607L102.674 142.536L110.012 140.662L109.52 138.733ZM103.392 141.325L96.6621 114.973L94.7337 115.466L101.463 141.818L103.392 141.325ZM94.7361 114.965L89.1758 135.927L91.0995 136.437L96.6598 115.475L94.7361 114.965ZM89.8915 135.218L82.6959 137.056L83.1884 138.984L90.3839 137.146L89.8915 135.218ZM83.6612 137.332L68.6356 121.626L67.1975 123.002L82.2231 138.708L83.6612 137.332ZM66.9523 122.56L73.6817 148.912L75.6101 148.42L68.8807 122.068L66.9523 122.56ZM74.3997 147.702L67.1089 149.564L67.6013 151.492L74.8922 149.63L74.3997 147.702ZM68.3193 150.282L59.0953 114.161L57.1669 114.653L66.3909 150.774L68.3193 150.282ZM58.3773 115.371L69.0038 112.658L68.5114 110.729L57.8849 113.443L58.3773 115.371ZM68.0333 112.376L83.4919 128.783L84.9405 127.418L69.4819 111.011L68.0333 112.376ZM85.1799 128.349L90.7837 106.563L88.8562 106.067L83.2524 127.853L85.1799 128.349ZM90.0662 107.279L100.788 104.541L100.296 102.613L89.5738 105.351L90.0662 107.279ZM138.856 93.7928L139.797 94.1143L140.391 92.3735L138.609 92.8286L138.856 93.7928ZM130.086 119.483L129.145 119.162L129.049 119.442L129.122 119.73L130.086 119.483ZM133.688 133.588L133.935 134.553L134.899 134.306L134.653 133.342L133.688 133.588ZM126.588 135.402L125.624 135.648L125.87 136.612L126.834 136.366L126.588 135.402ZM122.986 121.296L123.95 121.05L123.877 120.764L123.66 120.564L122.986 121.296ZM103.021 102.944L102.775 101.98L100.996 102.434L102.347 103.676L103.021 102.944ZM111.598 100.753L112.273 100.022L111.875 99.6556L111.352 99.7892L111.598 100.753ZM124.541 112.676L123.867 113.408L124.987 114.44L125.482 113L124.541 112.676ZM130.278 95.9832L130.032 95.019L129.512 95.1519L129.337 95.6598L130.278 95.9832ZM137.914 93.4714L129.145 119.162L131.028 119.805L139.797 94.1143L137.914 93.4714ZM129.122 119.73L132.724 133.835L134.653 133.342L131.051 119.237L129.122 119.73ZM133.442 132.624L126.342 134.437L126.834 136.366L133.935 134.553L133.442 132.624ZM127.552 135.155L123.95 121.05L122.022 121.543L125.624 135.648L127.552 135.155ZM123.66 120.564L103.694 102.211L102.347 103.676L122.313 122.029L123.66 120.564ZM103.267 103.908L111.845 101.718L111.352 99.7892L102.775 101.98L103.267 103.908ZM110.924 101.485L123.867 113.408L125.215 111.944L112.273 100.022L110.924 101.485ZM125.482 113L131.219 96.3067L129.337 95.6598L123.6 112.353L125.482 113ZM130.524 96.9474L139.102 94.757L138.609 92.8286L130.032 95.019L130.524 96.9474ZM204.34 77.0701L205.334 77.1288L205.414 75.7688L204.094 76.1059L204.34 77.0701ZM202.033 116.136L202.279 117.1L202.983 116.92L203.026 116.194L202.033 116.136ZM195.075 117.912L194.228 118.433L194.612 119.058L195.322 118.876L195.075 117.912ZM181.533 95.889L182.38 95.3678L180.875 92.9193L180.544 95.7746L181.533 95.889ZM178.492 122.147L178.738 123.111L179.402 122.942L179.481 122.261L178.492 122.147ZM171.773 123.863L170.933 124.397L171.32 125.006L172.019 124.827L171.773 123.863ZM150.731 90.7601L150.485 89.7959L149.155 90.1355L149.892 91.294L150.731 90.7601ZM158.165 88.8618L159.007 88.3304L158.62 87.7185L157.919 87.8976L158.165 88.8618ZM172.739 111.941L171.898 112.473L173.546 115.084L173.732 112.001L172.739 111.941ZM174.379 84.772L174.133 83.8078L173.43 83.9874L173.386 84.712L174.379 84.772ZM182.242 82.7641L183.097 82.2558L182.717 81.6157L181.996 81.7999L182.242 82.7641ZM196.041 105.991L195.185 106.499L196.921 109.42L197.036 106.024L196.041 105.991ZM196.954 78.9563L196.708 77.9921L195.985 78.1768L195.96 78.9227L196.954 78.9563ZM203.347 77.0114L201.039 116.077L203.026 116.194L205.334 77.1288L203.347 77.0114ZM201.786 115.171L194.829 116.948L195.322 118.876L202.279 117.1L201.786 115.171ZM195.923 117.391L182.38 95.3678L180.685 96.4103L194.228 118.433L195.923 117.391ZM180.544 95.7746L177.504 122.033L179.481 122.261L182.521 96.0035L180.544 95.7746ZM178.246 121.183L171.527 122.899L172.019 124.827L178.738 123.111L178.246 121.183ZM172.613 123.329L151.571 90.2263L149.892 91.294L170.933 124.397L172.613 123.329ZM150.978 91.7243L158.411 89.826L157.919 87.8976L150.485 89.7959L150.978 91.7243ZM157.324 89.3931L171.898 112.473L173.58 111.41L159.007 88.3304L157.324 89.3931ZM173.732 112.001L175.373 84.832L173.386 84.712L171.746 111.881L173.732 112.001ZM174.625 85.7362L182.488 83.7283L181.996 81.7999L174.133 83.8078L174.625 85.7362ZM181.386 83.2724L195.185 106.499L196.897 105.483L183.097 82.2558L181.386 83.2724ZM197.036 106.024L197.949 78.9899L195.96 78.9227L195.046 105.957L197.036 106.024ZM197.201 79.9205L204.587 78.0343L204.094 76.1059L196.708 77.9921L197.201 79.9205ZM220.745 72.881L221.54 72.2827L221.141 71.7527L220.499 71.9168L220.745 72.881ZM245.027 105.156L245.273 106.12L246.72 105.751L245.822 104.558L245.027 105.156ZM237.403 107.103L236.604 107.697L237.003 108.232L237.649 108.067L237.403 107.103ZM231.53 99.2123L232.328 98.6182L231.93 98.0831L231.284 98.2481L231.53 99.2123ZM215.852 103.216L215.606 102.252L214.96 102.417L214.867 103.077L215.852 103.216ZM214.482 112.956L214.728 113.921L215.374 113.756L215.467 113.095L214.482 112.956ZM206.857 114.903L205.873 114.76L205.657 116.237L207.104 115.868L206.857 114.903ZM212.692 74.9375L212.445 73.9733L211.803 74.1374L211.707 74.7938L212.692 74.9375ZM217.262 94.2266L216.277 94.0834L216.063 95.56L217.508 95.1908L217.262 94.2266ZM225.982 91.9997L226.229 92.9639L227.668 92.5963L226.78 91.4049L225.982 91.9997ZM218.957 82.5759L219.755 81.9811L218.318 80.0541L217.972 82.4327L218.957 82.5759ZM219.95 73.4792L244.232 105.754L245.822 104.558L221.54 72.2827L219.95 73.4792ZM244.781 104.192L237.156 106.139L237.649 108.067L245.273 106.12L244.781 104.192ZM238.201 106.509L232.328 98.6182L230.732 99.8065L236.604 107.697L238.201 106.509ZM231.284 98.2481L215.606 102.252L216.098 104.18L231.776 100.177L231.284 98.2481ZM214.867 103.077L213.496 112.818L215.467 113.095L216.838 103.355L214.867 103.077ZM214.236 111.992L206.611 113.939L207.104 115.868L214.728 113.921L214.236 111.992ZM207.842 115.047L213.676 75.0812L211.707 74.7938L205.873 114.76L207.842 115.047ZM212.938 75.9017L220.991 73.8452L220.499 71.9168L212.445 73.9733L212.938 75.9017ZM217.508 95.1908L226.229 92.9639L225.736 91.0355L217.016 93.2625L217.508 95.1908ZM226.78 91.4049L219.755 81.9811L218.159 83.1707L225.185 92.5945L226.78 91.4049ZM217.972 82.4327L216.277 94.0834L218.247 94.3699L219.942 82.7191L217.972 82.4327ZM266.464 61.2059L267.405 61.5273L268 59.7866L266.217 60.2417L266.464 61.2059ZM257.695 86.8963L256.753 86.5749L256.657 86.8554L256.73 87.1425L257.695 86.8963ZM261.297 101.001L261.543 101.966L262.507 101.719L262.261 100.755L261.297 101.001ZM254.196 102.815L253.232 103.061L253.478 104.025L254.443 103.779L254.196 102.815ZM250.594 88.7095L251.559 88.4633L251.486 88.1769L251.268 87.9769L250.594 88.7095ZM230.629 70.3569L230.383 69.3927L228.604 69.847L229.956 71.0895L230.629 70.3569ZM239.206 68.1665L239.881 67.4346L239.484 67.0687L238.96 67.2023L239.206 68.1665ZM252.149 80.0893L251.475 80.8212L252.595 81.8532L253.09 80.4127L252.149 80.0893ZM257.886 63.3963L257.64 62.4321L257.12 62.5649L256.945 63.0728L257.886 63.3963ZM265.522 60.8844L256.753 86.5749L258.636 87.2178L267.405 61.5273L265.522 60.8844ZM256.73 87.1425L260.332 101.248L262.261 100.755L258.659 86.6501L256.73 87.1425ZM261.05 100.037L253.95 101.85L254.443 103.779L261.543 101.966L261.05 100.037ZM255.161 102.568L251.559 88.4633L249.63 88.9557L253.232 103.061L255.161 102.568ZM251.268 87.9769L231.302 69.6242L229.956 71.0895L249.921 89.4421L251.268 87.9769ZM230.875 71.3211L239.453 69.1307L238.96 67.2023L230.383 69.3927L230.875 71.3211ZM238.532 68.8984L251.475 80.8212L252.824 79.3574L239.881 67.4346L238.532 68.8984ZM253.09 80.4127L258.827 63.7197L256.945 63.0728L251.208 79.7659L253.09 80.4127ZM258.132 64.3605L266.71 62.17L266.217 60.2417L257.64 62.4321L258.132 64.3605Z" fill="#7FA2F6" mask="url(#path-7-outside-1_409_1016)"/>
<path fill-rule="evenodd" clip-rule="evenodd" d="M137.617 280.421C137.617 278.122 139.481 276.258 141.781 276.258H187.584V255.438H129.289C122.39 255.438 116.798 261.031 116.798 267.93V334.552C116.798 336.852 118.662 338.716 120.962 338.716H133.453C135.753 338.716 137.617 336.852 137.617 334.552V280.421Z" fill="#3B71F0"/>
<path d="M228.372 263.454C230.786 265.107 230.786 268.67 228.372 270.324L193.841 293.977C191.077 295.87 187.324 293.892 187.324 290.542L187.324 243.235C187.324 239.886 191.077 237.907 193.841 239.8L228.372 263.454Z" fill="#3B71F0"/>
<path d="M426.71 104.769C429.25 101.038 434.75 101.038 437.29 104.769L465.025 145.497C467.919 149.746 464.876 155.5 459.735 155.5H404.265C399.124 155.5 396.081 149.746 398.975 145.497L426.71 104.769Z" fill="#3B71F0"/>
<rect x="414.711" y="153.557" width="34.5992" height="81.0611" rx="3.9542" fill="#3B71F0"/>
<path d="M320.197 382.725C318.48 381.275 318.753 378.554 320.723 377.473L346.794 363.167C349.053 361.928 351.776 363.729 351.52 366.293L348.17 399.784C347.913 402.348 344.887 403.574 342.919 401.911L320.197 382.725Z" fill="#7FA2F6"/>
<path d="M393.18 390.859C391.463 389.409 391.735 386.687 393.706 385.606L419.777 371.301C422.036 370.061 424.759 371.862 424.503 374.426L421.152 407.917C420.896 410.481 417.87 411.707 415.901 410.045L393.18 390.859Z" fill="#7FA2F6"/>
<path d="M465.274 398.409C463.557 396.959 463.829 394.238 465.799 393.157L491.871 378.851C494.13 377.612 496.853 379.413 496.596 381.977L493.246 415.468C492.99 418.032 489.964 419.258 487.995 417.595L465.274 398.409Z" fill="#7FA2F6"/>
<rect x="341.174" y="390.274" width="15.4879" height="38.7415" rx="3.72353" transform="rotate(-84.2878 341.174 390.274)" fill="#7FA2F6"/>
<rect x="414.326" y="398.587" width="15.4879" height="38.7415" rx="3.72353" transform="rotate(-85.5951 414.326 398.587)" fill="#7FA2F6"/>
<rect x="486.251" y="405.958" width="15.4879" height="38.7415" rx="3.72353" transform="rotate(-84.2878 486.251 405.958)" fill="#7FA2F6"/>
<path d="M251.21 341.836C258.409 314.737 282.94 295.872 310.98 295.872C338.743 295.872 363.104 314.374 370.554 341.12L397.727 438.67C404.425 462.714 382.241 484.829 358.218 478.056L243.961 445.845C233.443 442.88 227.252 432.022 230.058 421.461L251.21 341.836Z" fill="black"/>
<path d="M291.413 270.175H321.699V293.179C321.699 298.609 319.295 303.76 315.133 307.248L312.932 309.092C302.861 317.531 287.625 309.508 288.885 296.429L291.413 270.175Z" fill="#F6C6B0"/>
<path d="M338.234 307.895L333.254 269.953L358.755 287.771C363.922 291.382 367.79 296.559 369.788 302.538L383.084 342.33C383.611 343.908 381.935 345.318 380.471 344.527L353.403 329.916C345.104 325.436 339.462 317.245 338.234 307.895Z" fill="black"/>
<path d="M260.692 208.069C268.906 199.187 277.205 183.083 281.554 173.172C281.864 172.467 282.558 172.011 283.328 172.011H346.301C347.062 172.011 347.752 172.459 348.061 173.155L385.492 257.375C385.84 258.157 385.63 259.075 384.976 259.628L355.315 284.726C354.967 285.02 354.526 285.182 354.071 285.182H327.326C308.384 285.503 269.73 281.233 260.869 267.364C254.228 256.969 251.59 239.343 251.091 225.96C250.838 219.199 256.098 213.037 260.692 208.069Z" fill="#F6C6B0"/>
<path d="M338.076 197.798C310.689 200.238 278.406 197.472 270.019 195.608C272.426 174.901 286.874 163.343 295.061 159.49C340.088 138.301 367.297 159.972 385.116 178.272C404.604 198.287 411.121 244.248 387.524 267.364C368.646 285.856 355.9 289.516 351.887 289.035L331.179 285.182C344.663 286.338 353.813 280.848 356.703 277.958C359.432 274.266 363.252 265.341 356.703 259.177C350.153 253.012 343.379 255.324 340.811 257.25C333.044 244.002 336.257 217.173 340.171 200.2C340.471 198.898 339.406 197.679 338.076 197.798Z" fill="black"/>
<rect x="309.649" y="225.466" width="11.5579" height="18.3" rx="5.77894" transform="rotate(37.806 309.649 225.466)" fill="black"/>
<rect x="278.828" y="204.277" width="11.5579" height="18.3" rx="5.77894" transform="rotate(37.806 278.828 204.277)" fill="black"/>
<path d="M220.118 289.071L217.732 292.861C216.2 295.295 213.134 296.266 210.48 295.16L180.246 282.553C178.907 281.995 177.472 281.701 176.02 281.688C166.921 281.605 162.34 292.634 168.822 299.022L208.576 338.196L235.564 322.006L237.676 294.886C237.991 290.845 235.714 287.048 232.001 285.421C227.683 283.529 222.63 285.081 220.118 289.071Z" fill="#F6C6B0"/>
<path d="M266 459L235.558 320L208 336.143V439C208 450.046 216.954 459 228 459H266Z" fill="black"/>
<path d="M291.931 249.406L277.814 245.877C276.011 245.426 274.185 246.571 274.047 248.425C273.577 254.774 275.021 263.554 283.488 264.646C292.356 265.791 294.354 257.831 294.257 252.18C294.233 250.832 293.24 249.733 291.931 249.406Z" fill="#E08C8E"/>
<path d="M253 419H369L380.5 621H242.5L253 419Z" fill="black"/>
<path d="M227 459H270V483H251C237.745 483 227 472.255 227 459Z" fill="#F6C6B0"/>
</g>
<defs>
<clipPath id="clip0_409_1016">
<rect width="600" height="600" fill="white"/>
</clipPath>
</defs>
</svg>
