<svg width="current" height="current" viewBox="0 0 600 600" fill="none" xmlns="http://www.w3.org/2000/svg">
<path d="M268.582 148.16C271.89 148.112 275.216 148.063 278.48 148.595L329.413 155.233C334.668 155.917 339.57 158.253 343.413 161.904C346.104 164.46 348.192 167.583 349.527 171.047L408 322.786L372 321.286L349.93 260.864C349.539 259.793 347.947 260.106 347.991 261.246L358 518.286H249L262.5 274.286L266.937 198.198C267.576 193.308 263.68 189.02 258.753 188.78C238.514 187.795 213.747 181.619 194.521 166.286C162.921 141.086 155.167 104.453 155.5 88.2865L193.5 87.2865C193.5 97.2865 196.9 114.286 218.5 132.286C236.792 147.53 257.656 148.32 268.517 148.161L268.582 148.16Z" fill="black"/>
<path d="M258.265 105.647C260.555 98.7888 263.698 80.3124 264.633 71.7832C264.788 70.3793 265.586 69.1213 266.817 68.4289L288.396 56.2905C289.489 55.6758 290.799 55.5799 291.969 56.0288L357.013 80.9702C358.851 81.675 359.956 83.5588 359.674 85.507L354.698 119.884C354.49 121.322 353.555 122.551 352.225 123.136L314.87 139.572C302.654 145.049 286.962 141.854 280.643 139.572C265.034 133 258.503 117.717 258.025 107.195C258.001 106.667 258.097 106.148 258.265 105.647Z" fill="#F6C6B0"/>
<path d="M322.237 97.4443L263.792 77.9629L265.945 67.523C268.173 56.7239 275.281 47.1841 284.778 41.5821C295.395 35.3192 308.133 29.7096 328 35.2865C360.355 44.3687 372.103 63.5972 375.071 81.2419C375.41 83.2605 375.43 85.3139 375.29 87.3561L371.702 139.806C371.421 143.923 368.199 147.23 364.091 147.619L321.189 151.684L319.083 135.886C326.28 134.482 339.198 129.989 341.726 123.248C344.253 116.508 345.412 111.137 341.726 107.978C336.786 103.743 330.88 104.842 327.028 107.536C326.159 108.145 324.589 107.444 324.685 106.387L325.1 101.822C325.277 99.8753 324.091 98.0625 322.237 97.4443Z" fill="black"/>
<path d="M295.521 156.451V138.286L321.549 126.786L322.694 152.2C322.89 156.539 320.308 160.524 316.268 162.12L310.788 164.284C307.423 165.612 303.662 165.512 300.372 164.007C297.417 162.654 295.521 159.702 295.521 156.451Z" fill="#F6C6B0"/>
<rect x="116" y="341.786" width="381" height="15" fill="#3B71F0"/>
<path d="M253.919 343.902C258.734 321.102 278.854 304.786 302.157 304.786C325.382 304.786 345.457 320.995 350.352 343.699L384 499.786H221L253.919 343.902Z" fill="#3B71F0"/>
<rect x="204" y="493.786" width="197" height="74" rx="10.2748" fill="#2156D4"/>
<circle cx="302.5" cy="354.217" r="49.3285" fill="#2156D4"/>
<path d="M344.741 314.692C353.459 323.41 359.204 334.546 361.324 346.524H360.907C358.792 334.655 353.092 323.623 344.451 314.982C333.325 303.856 318.235 297.605 302.5 297.605C286.765 297.605 271.675 303.856 260.549 314.982C251.908 323.623 246.208 334.655 244.093 346.524H243.676C245.796 334.546 251.541 323.41 260.259 314.692C271.462 303.489 286.657 297.195 302.5 297.195C318.343 297.195 333.538 303.489 344.741 314.692Z" stroke="#3B71F0" stroke-width="20.8175"/>
<path d="M299.332 329.449L301.729 304.749C301.835 303.653 303.436 303.661 303.531 304.758L305.668 329.449V347.429H299.332V329.449Z" fill="#BED1FF"/>
<circle cx="302.5" cy="354.217" r="9.50365" fill="#BED1FF"/>
<circle cx="497.5" cy="345.286" r="11.5" fill="#2156D4"/>
<path d="M427 311.786C427 309.577 428.791 307.786 431 307.786H563C565.209 307.786 567 309.577 567 311.786V320.786C567 334.041 556.255 344.786 543 344.786H497H451C437.745 344.786 427 334.041 427 320.786V311.786Z" fill="#2156D4"/>
<circle cx="497.5" cy="345.286" r="11.5" fill="#2156D4"/>
<path d="M427 311.786C427 309.577 428.791 307.786 431 307.786H563C565.209 307.786 567 309.577 567 311.786V320.786C567 334.041 556.255 344.786 543 344.786H497H451C437.745 344.786 427 334.041 427 320.786V311.786Z" fill="#2156D4"/>
<circle cx="116.5" cy="345.286" r="11.5" fill="#2156D4"/>
<path d="M46 311.786C46 309.577 47.7909 307.786 50 307.786H182C184.209 307.786 186 309.577 186 311.786V320.786C186 334.041 175.255 344.786 162 344.786H116H70C56.7452 344.786 46 334.041 46 320.786V311.786Z" fill="#2156D4"/>
<rect x="294.381" y="102.988" width="8.81773" height="11.0222" rx="4.40886" transform="rotate(11.1634 294.381 102.988)" fill="black"/>
<rect x="267.99" y="93.036" width="8.81773" height="11.0222" rx="4.40886" transform="rotate(11.7304 267.99 93.036)" fill="black"/>
<path d="M140 76.6949C140 65.6998 148.913 56.7865 159.908 56.7865H166.868C181.462 56.7865 193.387 68.4364 193.728 83.0264L194 94.6669L161.057 96.5701C149.629 97.2302 140 88.1413 140 76.6949Z" fill="#F6C6B0"/>
<path d="M403 320.786H372V341.786H423V340.786C423 329.741 414.046 320.786 403 320.786Z" fill="#F6C6B0"/>
<rect x="413" y="198.786" width="96" height="109" rx="12" fill="#A2BDFF"/>
<circle cx="548" cy="277.786" r="30" fill="#3B71F0"/>
<rect x="454.844" y="88.7865" width="188.316" height="46" rx="12" transform="rotate(43.8091 454.844 88.7865)" fill="#2156D4"/>
<path d="M77.5861 194.318C81.2929 187.027 91.7071 187.027 95.4139 194.318L146.228 294.254C149.61 300.907 144.777 308.786 137.314 308.786H35.6861C28.2228 308.786 23.3895 300.907 26.7722 294.254L77.5861 194.318Z" fill="#BED1FF"/>
<circle cx="139" cy="145.786" r="65" fill="#3B71F0"/>
<path d="M281.042 122.041C276.679 121.14 276.516 125.707 278.484 130.336C279.107 131.8 280.072 133.127 281.399 134.004C281.657 134.175 281.915 134.329 282.171 134.468C286.722 136.932 291.182 131.291 288.467 126.885C287.147 124.744 284.869 122.831 281.042 122.041Z" fill="#DF8C8E"/>
</svg>
