<svg width="current" height="current" viewBox="0 0 600 600" fill="none" xmlns="http://www.w3.org/2000/svg">
<path d="M123.088 459.73V222.7C123.64 190.286 129.276 118.938 147.398 92.8588" stroke="#BED1FF" stroke-width="13.2604" stroke-linecap="round"/>
<path d="M204.584 246.647C206.268 243.012 202.636 239.191 198.921 240.689L173.643 250.879L151.786 259.689C142.972 263.242 135.959 270.193 132.328 278.975L121.246 305.778C118.419 312.616 124.742 319.694 131.854 317.653L166.494 307.713C173.666 305.655 179.589 300.583 182.726 293.813L204.584 246.647Z" fill="#BED1FF"/>
<path d="M42.6962 158.797C41.0119 155.162 44.6438 151.341 48.3592 152.839L73.6374 163.028L95.4941 171.839C104.308 175.392 111.321 182.343 114.952 191.124L126.034 217.928C128.861 224.766 122.538 231.844 115.426 229.803L80.786 219.863C73.6144 217.805 67.6909 212.733 64.5538 205.963L42.6962 158.797Z" fill="#BED1FF"/>
<path d="M180.11 109.328C159.58 107.066 143.311 117.77 137.453 123.8C160.639 133.46 175.66 122.711 182.148 113.701C183.428 111.923 182.287 109.568 180.11 109.328Z" fill="#BED1FF" stroke="#BED1FF" stroke-width="11.0503" stroke-linecap="round"/>
<path d="M85.5077 264.433C105.314 270.29 116.175 286.455 119.243 294.281C94.1256 294.219 84.4331 278.495 81.9362 267.677C81.4434 265.542 83.4065 263.811 85.5077 264.433Z" fill="#BED1FF" stroke="#BED1FF" stroke-width="11.0503" stroke-linecap="round"/>
<circle cx="119.22" cy="105.014" r="16.023" fill="#3B71F0"/>
<circle cx="136.9" cy="276.294" r="16.023" fill="#3B71F0"/>
<rect x="89.9366" y="449.232" width="67.407" height="102.768" fill="#8AADFF"/>
<path d="M509.849 315.523V442.049" stroke="#8AADFF" stroke-width="6.6302"/>
<path d="M453.492 255.851V430.447" stroke="#8AADFF" stroke-width="6.6302"/>
<path d="M426.117 212.92C426.56 207.863 432.772 205.704 436.255 209.397L444.363 217.991L447.401 211.63C450.458 205.229 459.647 205.457 462.382 212.002L464.885 217.991L472.566 209.849C476.14 206.06 482.512 208.367 482.834 213.565L484.121 234.372C485.189 251.632 471.478 266.218 454.184 266.218C436.585 266.218 422.768 251.136 424.304 233.605L426.117 212.92Z" fill="#8AADFF"/>
<path d="M481.368 263.751C481.812 258.694 488.023 256.536 491.507 260.228L499.614 268.822L502.652 262.461C505.71 256.06 514.899 256.289 517.634 262.834L520.136 268.822L527.817 260.68C531.392 256.892 537.764 259.198 538.086 264.397L539.373 285.203C540.44 302.464 526.729 317.049 509.436 317.049C491.837 317.049 478.02 301.968 479.556 284.437L481.368 263.751Z" fill="#8AADFF"/>
<path d="M508.744 378.215C508.744 366.632 514.417 355.783 523.93 349.174L555.655 327.133C557.413 325.912 559.706 327.652 559.004 329.674L546.834 364.7C541.892 378.922 528.488 388.455 513.432 388.455H508.744V378.215Z" fill="#8AADFF"/>
<path d="M453.492 369.658C453.492 359.646 458.396 350.268 466.619 344.555L494.043 325.503C495.562 324.447 497.545 325.951 496.937 327.699L486.417 357.976C482.146 370.269 470.559 378.51 457.544 378.51H453.492V369.658Z" fill="#8AADFF"/>
<path d="M455.393 339.949C455.393 327.581 449.336 315.997 439.178 308.94L405.302 285.405C403.425 284.101 400.976 285.959 401.726 288.117L414.721 325.518C419.998 340.704 434.311 350.884 450.388 350.884H455.393V339.949Z" fill="#8AADFF"/>
<rect x="442.442" y="409.451" width="86.1926" height="138.129" fill="#BED1FF"/>
<path d="M376.753 109.831L372.269 114.703L376.072 115.489C380.242 116.351 383.692 119.199 385.917 122.83C389.117 128.053 393.99 134.353 399.685 137.567C405.84 141.041 416.048 140.477 423.455 139.107C427.47 138.364 431.715 138.899 435.103 141.178L450.3 151.399C451.52 152.22 453.186 151.642 453.637 150.242L462.61 122.358C463.149 120.686 461.62 119.089 459.93 119.569C450.89 122.139 437.024 126.208 431.113 127.263C424.251 128.489 417.421 118.979 415.239 114.272C437.307 117.091 445.442 81.388 446.752 63.1841L404.747 92.4281C400.116 95.6524 398.033 101.454 399.555 106.888L400.34 109.691L390.993 106.332C385.975 104.529 380.364 105.908 376.753 109.831Z" fill="#BED1FF"/>
<path d="M168.768 407.037V460.282" stroke="#3B71F0" stroke-width="8.26225"/>
<path d="M124.703 421.181H140.309C154.505 421.181 166.014 432.689 166.014 446.886V453.312H150.407C136.211 453.312 124.703 441.803 124.703 427.607V421.181Z" fill="#3B71F0"/>
<path d="M210.079 409.077H194.473C180.276 409.077 168.768 420.585 168.768 434.781V441.208H184.374C198.571 441.208 210.079 429.699 210.079 415.503V409.077Z" fill="#3B71F0"/>
<ellipse cx="151.172" cy="397.89" rx="22.0327" ry="16.0655" fill="#8AADFF"/>
<ellipse cx="187.145" cy="397.771" rx="22.0327" ry="16.0655" fill="#8AADFF"/>
<ellipse cx="142.91" cy="377.949" rx="22.0327" ry="16.0655" fill="#8AADFF"/>
<ellipse cx="193.572" cy="377.949" rx="22.0327" ry="16.0655" fill="#8AADFF"/>
<ellipse cx="166.49" cy="363.634" rx="21.5736" ry="16.0655" fill="#8AADFF"/>
<ellipse cx="168.394" cy="381.825" rx="11.0503" ry="6.6302" fill="#3B71F0"/>
<rect x="123.088" y="469.122" width="89.5077" height="82.8775" fill="black"/>
<rect x="117.562" y="455.862" width="99.453" height="24.3107" fill="black"/>
<path d="M286.483 170.769L260.45 169.483C251.233 169.028 242.544 173.795 237.975 181.813L182.298 279.532C182.298 285.114 183.398 306.601 198.402 315.603C204.843 319.468 228.032 319.468 233.185 319.468V524.946C205.874 524.946 200.119 542.553 198.402 552L362.656 546.847C362.656 530.872 342.902 521.296 333.025 518.505L319.499 319.468C343.976 317.536 357.932 315.389 357.503 304.653C357.503 267.816 324.415 209.036 304.197 180.242C300.134 174.456 293.545 171.117 286.483 170.769Z" fill="black" stroke="black" stroke-width="1.28827"/>
<path d="M289.224 174.564V166.809L292.445 159.723L261.527 148.129L258.95 168.741L279.665 180.2C283.958 182.575 289.224 179.47 289.224 174.564Z" fill="#F6C6B0"/>
<path d="M329.356 138.794C330.171 129.805 333.767 115.074 336.782 107.878L321.227 87.4319L249.947 80.0403L232.666 120.042L243.683 137.324C246.271 140.631 252.594 148.4 257.186 153.022C262.926 158.8 281.543 167.579 300.742 163.601C311.908 161.287 320.366 155.156 325.381 150.134C328.262 147.249 328.988 142.854 329.356 138.794Z" fill="#F6C6B0"/>
<path d="M257.486 112.172L333.763 115.805C339.09 101.276 338.779 95.222 338.001 90.9843C332.552 61.3211 304.301 48.6083 288.36 47.3975C213.899 41.3438 222.456 106.26 225.401 117.621C229.639 133.966 245.58 144.863 251.432 146.679L238.114 128.517C234.24 120.284 238.518 114.997 241.141 113.383C250.827 110.962 254.459 118.428 255.064 122.464L257.486 112.172Z" fill="black" stroke="black" stroke-width="1.21075"/>
<rect x="282.783" y="128.161" width="9.01786" height="11.5944" rx="4.50893" fill="black"/>
<rect x="312.413" y="128.161" width="9.01786" height="11.5944" rx="4.50893" fill="black"/>
<path d="M293.089 150.061C294.378 152.208 298.5 155.858 304.684 153.282" stroke="black" stroke-width="3.22066" stroke-linecap="round"/>
<path d="M370.274 242.797L363.944 267.326L372.264 276.311L395.016 274.856C398.095 274.659 399.713 271.111 397.843 268.657L387.24 254.741L377.09 241.421C375.134 238.854 371.08 239.673 370.274 242.797Z" fill="#3B71F0"/>
<path d="M231.253 272.446C231.253 258.928 242.211 247.969 255.73 247.969H296.954C310.472 247.969 321.431 258.928 321.431 272.446V330.418C321.431 335.399 317.394 339.436 312.413 339.436H240.27C235.29 339.436 231.253 335.399 231.253 330.418V272.446Z" fill="#3B71F0"/>
<path d="M372.962 275.565L318.524 336.859L312.413 301.995L364.629 266.005L372.962 275.565Z" fill="#3B71F0"/>
<rect x="267.324" y="235.087" width="18.0357" height="33.4949" rx="6.44133" fill="#3B71F0"/>
<path d="M236.406 274.379V258.743C236.406 255.883 235.921 252.998 234.376 250.59C231.496 246.1 225.927 240.24 217.081 240.24C207.453 240.24 201.229 245.766 198.125 251.639C196.759 254.222 196.258 257.158 196.16 260.078C195.806 270.611 198.295 284.395 211.794 300.144L237.694 330.418" stroke="#3B71F0" stroke-width="10.3061"/>
<rect x="313.702" y="269.87" width="48.9541" height="11.5944" fill="#3B71F0"/>
<path d="M181.654 278.888H204.843C217.294 278.888 227.388 288.981 227.388 301.432C227.388 313.883 217.294 323.977 204.843 323.977H203.432C191.405 323.977 181.654 314.227 181.654 302.199V278.888Z" fill="#F6C6B0"/>
<path d="M347.083 294.699L333.07 310.749C326.615 318.144 327.292 329.352 334.59 335.916C346.126 346.289 363.963 345.032 373.929 333.144L375.355 331.443C384.342 320.723 384.117 305.037 374.827 294.58C367.431 286.254 354.406 286.31 347.083 294.699Z" fill="#F6C6B0"/>
<path d="M422.551 434.53C427.708 418.691 447.304 387.787 484.433 390.881" stroke="#8AADFF" stroke-width="3.3151"/>
<path d="M379.455 435.971C381.665 415.713 371.057 376.079 310.943 379.615" stroke="#8AADFF" stroke-width="3.3151"/>
<path d="M404.871 432.657C408.186 411.661 421.225 364.697 446.862 344.806" stroke="#8AADFF" stroke-width="3.3151"/>
<path d="M392.716 434.866V368.564" stroke="#8AADFF" stroke-width="3.3151"/>
<ellipse cx="311.351" cy="385.917" rx="37.7258" ry="28.4598" transform="rotate(-54.8858 311.351 385.917)" fill="#3B71F0"/>
<ellipse cx="383.128" cy="366.472" rx="30.8218" ry="18.3104" transform="rotate(-0.793622 383.128 366.472)" fill="#3B71F0"/>
<ellipse cx="444.817" cy="342.777" rx="45.2014" ry="17.8054" transform="rotate(26.434 444.817 342.777)" fill="#3B71F0"/>
<ellipse cx="440.811" cy="409.925" rx="28.4593" ry="8.59455" transform="rotate(26.434 440.811 409.925)" fill="#3B71F0"/>
<circle cx="496.036" cy="406.688" r="38.1236" fill="#3B71F0"/>
<path d="M338.569 434.866H459.018L451.835 547.58H348.514L338.569 434.866Z" fill="black"/>
<rect x="335.254" y="431.552" width="129.289" height="28.7309" rx="5.52516" fill="black"/>
<ellipse cx="380.008" cy="438.734" rx="31.4934" ry="23.7582" transform="rotate(10.3143 380.008 438.734)" fill="#3B71F0"/>
<circle cx="330.281" cy="429.894" r="12.7079" fill="#3B71F0"/>
<path d="M275.354 284.485C275.879 284.991 276.711 284.986 277.23 284.473L280.711 281.03C286.551 275.254 296.462 279.373 296.488 287.587C296.5 291.396 295.045 295.064 292.425 297.829L277.801 313.262C277.028 314.078 275.735 314.097 274.938 313.304L260.08 298.511C257.23 295.674 255.623 291.822 255.61 287.802C255.583 279.417 265.65 275.122 271.684 280.944L275.354 284.485Z" fill="#8AADFF"/>
</svg>
