<svg width="current" height="current" viewBox="0 0 600 600" fill="none" xmlns="http://www.w3.org/2000/svg">
<path fill-rule="evenodd" clip-rule="evenodd" d="M402.604 126.345C402.604 115.532 393.838 106.767 383.025 106.767H283.829C273.017 106.767 264.251 115.532 264.251 126.345L264.251 263.392H402.604V126.345ZM264.251 65C241.184 65 222.484 83.6996 222.484 106.767V263.392C222.484 286.459 241.184 305.159 264.251 305.159H402.604C425.671 305.159 444.37 286.459 444.37 263.392V106.767C444.37 83.6996 425.671 65 402.604 65H264.251Z" fill="#7FA2F6"/>
<rect x="195" y="250" width="276" height="256" rx="23.818" fill="#3B71F0"/>
<path fill-rule="evenodd" clip-rule="evenodd" d="M350.147 374.201C359.653 368.408 366 357.945 366 346C366 327.775 351.225 313 333 313C314.775 313 300 327.775 300 346C300 357.945 306.347 368.408 315.853 374.201L304 443H362L350.147 374.201Z" fill="#2156D4"/>
<path d="M362.74 184L305.5 186L270.767 249.222C266.373 257.219 272.16 267 281.284 267H388.126C400.9 267 408.524 252.766 401.444 242.133L362.74 184Z" fill="black" stroke="black" stroke-width="2" stroke-linecap="round"/>
<path d="M299.267 161.688C293.36 139.832 308.434 117.886 330.954 115.556C353.84 113.189 373.247 132.2 371.35 155.13L370.669 163.358C370.632 163.812 370.629 164.269 370.662 164.724C371.801 180.541 359.277 194 343.419 194H332.319C317.968 194 305.399 184.377 301.655 170.523L299.267 161.688Z" fill="#F6C6B0"/>
<path d="M322 268C322 257.507 330.507 249 341 249H356V268H322Z" fill="#F6C6B0"/>
<rect x="333" y="169" width="7" height="9" rx="3.5" fill="black"/>
<rect x="353" y="165" width="7" height="9" rx="3.5" fill="black"/>
<path d="M312 163.5L314 178.5V182L307 180C301.4 176.8 296.667 165.667 295 160.5C291.8 146.1 296 135.5 304 126C320.5 110 339.667 112.833 348 115.5C370 123.1 372.833 144.667 371.5 154.5L359 156L358.5 139.5L351.5 157L312 163.5Z" fill="black"/>
<path d="M315.745 178.505L310.367 175.857C304.78 173.107 298.017 175.073 294.775 180.39C291.122 186.381 293.347 194.213 299.604 197.389L321.5 208.5L323.929 203.96C328.888 194.687 325.179 183.15 315.745 178.505Z" fill="#F6C6B0"/>
<path fill-rule="evenodd" clip-rule="evenodd" d="M138.349 211.918C169.37 202.723 192 174.004 192 140C192 98.5786 158.421 65 117 65C75.5786 65 42 98.5786 42 140C42 174.004 64.6301 202.723 95.6514 211.918C95.2263 213.541 95 215.244 95 217V486C95 497.046 103.954 506 115 506H119C129.71 506 138.454 497.581 138.975 487H167C171.418 487 175 483.418 175 479V475C175 470.582 171.418 467 167 467H161C156.582 467 153 463.418 153 459C153 454.582 156.582 451 161 451H167C171.418 451 175 447.418 175 443V403C175 398.582 171.418 395 167 395H139V217C139 215.244 138.774 213.541 138.349 211.918ZM117 179C138.539 179 156 161.539 156 140C156 118.461 138.539 101 117 101C95.4609 101 78 118.461 78 140C78 161.539 95.4609 179 117 179Z" fill="#7FA2F6"/>
<rect x="311" y="477" width="246" height="57.8824" rx="16.0784" fill="#BED1FF"/>
<path d="M529.491 489.059L529.332 498.912L538.709 495.972L541.649 505.349L532.431 508.13L538.709 516.553L531.08 522.672L524.485 514.09L517.81 522.672L510.34 516.394L516.538 508.13L507.241 505.349L510.34 495.972L519.479 498.912L519.32 489.059H529.491Z" fill="url(#paint0_linear_409_1018)"/>
<path d="M484.249 489.059L484.09 498.912L493.467 495.972L496.407 505.349L487.19 508.13L493.467 516.553L485.839 522.672L479.243 514.09L472.568 522.672L465.099 516.394L471.297 508.13L462 505.349L465.099 495.972L474.237 498.912L474.078 489.059H484.249Z" fill="url(#paint1_linear_409_1018)"/>
<path d="M439.008 489.059L438.849 498.912L448.226 495.972L451.166 505.349L441.948 508.13L448.226 516.553L440.597 522.672L434.001 514.09L427.327 522.672L419.857 516.394L426.055 508.13L416.758 505.349L419.857 495.972L428.995 498.912L428.836 489.059H439.008Z" fill="url(#paint2_linear_409_1018)"/>
<path d="M393.766 489.059L393.607 498.912L402.984 495.972L405.924 505.349L396.706 508.13L402.984 516.553L395.355 522.672L388.76 514.09L382.085 522.672L374.615 516.394L380.814 508.13L371.516 505.349L374.615 495.972L383.754 498.912L383.595 489.059H393.766Z" fill="url(#paint3_linear_409_1018)"/>
<path d="M348.524 489.059L348.366 498.912L357.742 495.972L360.682 505.349L351.465 508.13L357.742 516.553L350.114 522.672L343.518 514.09L336.843 522.672L329.374 516.394L335.572 508.13L326.275 505.349L329.374 495.972L338.512 498.912L338.353 489.059H348.524Z" fill="url(#paint4_linear_409_1018)"/>
<defs>
<linearGradient id="paint0_linear_409_1018" x1="421.97" y1="413.412" x2="421.97" y2="736.396" gradientUnits="userSpaceOnUse">
<stop stop-color="#154AC6"/>
<stop offset="1" stop-color="#3B71F0"/>
</linearGradient>
<linearGradient id="paint1_linear_409_1018" x1="421.97" y1="413.412" x2="421.97" y2="736.396" gradientUnits="userSpaceOnUse">
<stop stop-color="#154AC6"/>
<stop offset="1" stop-color="#3B71F0"/>
</linearGradient>
<linearGradient id="paint2_linear_409_1018" x1="421.97" y1="413.412" x2="421.97" y2="736.396" gradientUnits="userSpaceOnUse">
<stop stop-color="#154AC6"/>
<stop offset="1" stop-color="#3B71F0"/>
</linearGradient>
<linearGradient id="paint3_linear_409_1018" x1="421.97" y1="413.412" x2="421.97" y2="736.396" gradientUnits="userSpaceOnUse">
<stop stop-color="#154AC6"/>
<stop offset="1" stop-color="#3B71F0"/>
</linearGradient>
<linearGradient id="paint4_linear_409_1018" x1="421.97" y1="413.412" x2="421.97" y2="736.396" gradientUnits="userSpaceOnUse">
<stop stop-color="#154AC6"/>
<stop offset="1" stop-color="#3B71F0"/>
</linearGradient>
</defs>
</svg>
