<svg width="current" height="current" viewBox="0 0 600 600" fill="none" xmlns="http://www.w3.org/2000/svg">
<circle cx="301.258" cy="216.5" r="169.5" fill="#3B71F0"/>
<path fill-rule="evenodd" clip-rule="evenodd" d="M276.361 326C262.328 326 249.99 335.135 245.347 348.378C229.374 393.944 201.01 460.67 171.646 488.631C166.557 493.477 162.219 499.211 160.324 505.978C156.073 521.159 164.378 537.024 179.274 542.182L270.875 568.9C274.514 569.961 278.285 570.5 282.075 570.5H325.029C328.988 570.5 332.924 569.912 336.71 568.756L423.742 542.182C438.638 537.024 446.942 521.159 442.692 505.978C440.797 499.211 436.459 493.477 431.37 488.631C402.006 460.67 373.642 393.944 357.668 348.378C353.026 335.135 340.688 326 326.655 326H276.361ZM249.115 479.544C248.932 480.807 247.629 481.577 246.434 481.129L231.613 475.571C230.264 475.065 229.856 473.333 230.74 472.195C238.913 461.674 247.116 438.939 253.889 420.171C255.046 416.964 256.161 413.873 257.227 410.979C257.637 409.866 259.198 410.278 259.028 411.452L249.115 479.544ZM353.9 479.544C354.084 480.807 355.387 481.577 356.582 481.129L371.403 475.571C372.751 475.065 373.16 473.333 372.276 472.195C364.103 461.674 355.9 438.939 349.127 420.171C347.97 416.964 346.855 413.873 345.788 410.979C345.378 409.866 343.817 410.278 343.988 411.452L353.9 479.544Z" fill="black"/>
<path d="M285.758 296H316.758V323.5C316.758 332.06 309.818 339 301.258 339C292.697 339 285.758 332.06 285.758 323.5V296Z" fill="#F6C6B0"/>
<ellipse cx="301.295" cy="249" rx="62.5" ry="63" fill="#F6C6B0"/>
<mask id="mask0_409_1014" style="mask-type:alpha" maskUnits="userSpaceOnUse" x="238" y="186" width="126" height="126">
<ellipse cx="301.295" cy="249" rx="62.5368" ry="63" fill="#F6C6B0"/>
</mask>
<g mask="url(#mask0_409_1014)">
<path d="M301.295 207.309C286.58 236.215 252.859 245.294 237.838 246.221L220.365 192.485L295.777 150.794L381.765 196.191L363.372 246.221C326.585 243.256 306.659 219.044 301.295 207.309Z" fill="black" stroke="black"/>
</g>
<path d="M263.78 253.089C267.384 257.323 283.372 255.776 285.462 247.18" stroke="black" stroke-width="5" stroke-linecap="round"/>
<path d="M338.611 253.089C335.006 257.323 319.019 255.776 316.929 247.18" stroke="black" stroke-width="5" stroke-linecap="round"/>
<path d="M228.258 478L193.758 462L179.73 463.113C169.864 463.896 162.258 472.131 162.258 482.027C162.258 492.505 170.752 501 181.231 501H195.098C205.848 501 215.918 495.738 222.057 486.914L228.258 478Z" fill="#F6C6B0"/>
<path d="M375.758 478L410.258 462L424.286 463.113C434.151 463.896 441.758 472.131 441.758 482.027C441.758 492.505 433.263 501 422.785 501H408.917C398.167 501 388.098 495.738 381.959 486.914L375.758 478Z" fill="#F6C6B0"/>
<rect x="124" y="344.969" width="82" height="20" transform="rotate(-40.2375 124 344.969)" fill="#BED1FF"/>
<rect x="113" y="256.969" width="82" height="20" transform="rotate(-40.2375 113 256.969)" fill="#BED1FF"/>
<rect x="376" y="304.969" width="82" height="20" transform="rotate(-40.2375 376 304.969)" fill="#BED1FF"/>
<rect x="265" y="69.9685" width="82" height="20" transform="rotate(-40.2375 265 69.9685)" fill="#BED1FF"/>
<rect x="300" y="147.969" width="82" height="20" transform="rotate(-40.2375 300 147.969)" fill="#BED1FF"/>
<rect x="402" y="137.969" width="82" height="20" transform="rotate(-40.2375 402 137.969)" fill="#BED1FF"/>
<rect x="56.9675" y="106.968" width="203.138" height="65.0678" rx="5.94471" fill="white" stroke="#BED1FF" stroke-width="7.93509"/>
<path d="M92.9881 154.475C91.323 154.735 89.7099 154.696 88.1489 154.358C86.6138 154.046 85.0528 153.46 83.4657 152.602C82.0608 151.795 80.916 150.846 80.0314 149.753C79.1468 148.66 78.5484 147.684 78.2362 146.826L83.6999 144.797C83.83 145.161 84.1031 145.577 84.5194 146.045C84.9357 146.514 85.5081 146.956 86.2366 147.372C87.4074 147.997 88.435 148.4 89.3196 148.582C90.2042 148.738 91.2319 148.725 92.4027 148.543C92.7409 148.465 93.1182 148.361 93.5345 148.231C93.9768 148.101 94.406 147.945 94.8223 147.763C95.2386 147.554 95.5768 147.333 95.837 147.099C96.0972 146.839 96.2923 146.579 96.4224 146.319C96.6305 145.954 96.7086 145.538 96.6566 145.07C96.6045 144.601 96.4224 144.198 96.1102 143.86C95.824 143.574 95.2386 143.275 94.354 142.962C93.4954 142.65 92.0515 142.234 90.0221 141.713L87.8757 141.167C86.2626 140.751 84.9227 140.191 83.856 139.489C83.3096 139.125 82.8153 138.748 82.373 138.357C81.9567 137.941 81.6705 137.629 81.5144 137.421C80.6818 136.354 80.1355 135.014 79.8753 133.401C79.6412 131.788 79.7712 130.383 80.2656 129.186C80.89 127.547 81.9177 126.246 83.3486 125.283C84.8056 124.295 86.3537 123.696 87.9927 123.488C89.4757 123.306 91.0758 123.345 92.793 123.605C94.5101 123.866 96.1492 124.438 97.7103 125.323C98.9851 125.999 100.013 126.766 100.793 127.625L96.3443 131.528C96.0582 131.215 95.5768 130.89 94.9004 130.552C93.8857 129.98 92.858 129.615 91.8173 129.459C90.8026 129.277 89.7749 129.238 88.7342 129.342C87.9797 129.446 87.3423 129.667 86.822 130.006C86.3016 130.318 85.9374 130.799 85.7292 131.45C85.6252 131.762 85.5861 132.113 85.6122 132.503C85.6642 132.894 85.8333 133.284 86.1195 133.674C86.4837 134.142 86.848 134.468 87.2122 134.65C87.4464 134.78 87.7196 134.897 88.0318 135.001C88.344 135.105 88.7603 135.222 89.2806 135.352C89.2806 135.378 89.3066 135.391 89.3587 135.391L91.388 135.938C93.8857 136.614 95.785 137.252 97.0858 137.85C98.4127 138.448 99.4534 139.073 100.208 139.723C100.884 140.322 101.431 141.076 101.847 141.987C102.289 142.897 102.51 143.912 102.51 145.031C102.536 146.149 102.302 147.281 101.808 148.426C101.418 149.337 100.845 150.208 100.091 151.041C99.3624 151.873 98.4518 152.563 97.359 153.109C96.5785 153.447 95.811 153.734 95.0565 153.968C94.302 154.228 93.6125 154.397 92.9881 154.475ZM119.843 153.382C119.245 153.512 118.399 153.616 117.306 153.695C116.24 153.799 115.329 153.838 114.574 153.812C113.482 153.734 112.389 153.356 111.296 152.68C110.204 152.003 109.306 151.106 108.603 149.987C107.901 148.842 107.55 147.593 107.55 146.241V124.347H113.716V146.241C113.716 146.709 113.82 147.06 114.028 147.294C114.262 147.502 114.574 147.619 114.965 147.645C115.433 147.671 116.031 147.658 116.76 147.606C117.514 147.528 118.1 147.45 118.516 147.372L119.843 153.382ZM103.803 132.425H119.726V138.162H103.803V132.425ZM130.421 148.543C131.253 148.543 132.021 148.322 132.723 147.88C133.452 147.437 134.037 146.826 134.479 146.045C134.922 145.265 135.143 144.406 135.143 143.47C135.143 142.507 134.922 141.635 134.479 140.855C134.037 140.074 133.452 139.463 132.723 139.021C132.021 138.578 131.253 138.357 130.421 138.357C129.354 138.357 128.469 138.578 127.767 139.021C127.064 139.437 126.544 140.035 126.206 140.816C125.868 141.57 125.698 142.455 125.698 143.47C125.698 144.484 125.868 145.369 126.206 146.123C126.544 146.878 127.064 147.476 127.767 147.919C128.469 148.335 129.354 148.543 130.421 148.543ZM141.465 153.734L135.533 153.773V151.509C135.039 152.055 134.479 152.524 133.855 152.914C133.256 153.304 132.606 153.603 131.904 153.812C131.201 154.02 130.499 154.124 129.796 154.124C127.741 154.124 125.946 153.642 124.411 152.68C122.902 151.717 121.744 150.429 120.937 148.816C120.157 147.203 119.766 145.421 119.766 143.47C119.766 141.518 120.157 139.736 120.937 138.123C121.744 136.51 122.902 135.222 124.411 134.259C125.946 133.297 127.741 132.816 129.796 132.816C130.889 132.816 131.93 133.05 132.918 133.518C133.933 133.96 134.805 134.611 135.533 135.469V132.737H141.465V153.734ZM155.762 147.919C157.193 147.919 158.247 147.502 158.923 146.67C159.6 145.837 159.938 144.719 159.938 143.314C159.938 142.429 159.795 141.648 159.508 140.972C159.222 140.296 158.767 139.762 158.143 139.372C157.544 138.982 156.751 138.787 155.762 138.787C155.007 138.787 154.305 138.995 153.655 139.411C153.03 139.801 152.523 140.348 152.133 141.05C151.768 141.727 151.586 142.481 151.586 143.314C151.586 144.172 151.768 144.953 152.133 145.655C152.523 146.358 153.03 146.917 153.655 147.333C154.305 147.724 155.007 147.919 155.762 147.919ZM156.386 133.284C158.338 133.284 160.029 133.739 161.46 134.65C162.917 135.56 164.01 136.783 164.738 138.318C165.492 139.827 165.87 141.492 165.87 143.314C165.87 145.161 165.492 146.852 164.738 148.387C164.01 149.922 162.917 151.145 161.46 152.055C160.029 152.966 158.338 153.421 156.386 153.421C155.762 153.421 155.151 153.356 154.552 153.226C153.98 153.122 153.381 152.888 152.757 152.524C152.133 152.159 151.56 151.639 151.04 150.963V153.148L145.225 153.109V123.371H151.04V135.703C151.768 134.923 152.627 134.325 153.616 133.908C154.63 133.492 155.554 133.284 156.386 133.284ZM174.777 132.464V153.968H169.001V132.464H174.777ZM171.889 121.849C172.852 121.849 173.606 122.148 174.152 122.747C174.699 123.319 174.972 124.048 174.972 124.932C174.972 125.817 174.699 126.558 174.152 127.157C173.606 127.729 172.852 128.015 171.889 128.015C170.926 128.015 170.172 127.729 169.625 127.157C169.079 126.558 168.806 125.817 168.806 124.932C168.806 124.048 169.079 123.319 169.625 122.747C170.172 122.148 170.926 121.849 171.889 121.849ZM184.763 123.371V153.968H178.909V123.371H184.763ZM194.863 132.464V153.968H189.087V132.464H194.863ZM191.975 121.849C192.938 121.849 193.692 122.148 194.239 122.747C194.785 123.319 195.058 124.048 195.058 124.932C195.058 125.817 194.785 126.558 194.239 127.157C193.692 127.729 192.938 128.015 191.975 128.015C191.013 128.015 190.258 127.729 189.712 127.157C189.165 126.558 188.892 125.817 188.892 124.932C188.892 124.048 189.165 123.319 189.712 122.747C190.258 122.148 191.013 121.849 191.975 121.849ZM214.059 153.382C213.461 153.512 212.615 153.616 211.522 153.695C210.456 153.799 209.545 153.838 208.791 153.812C207.698 153.734 206.605 153.356 205.512 152.68C204.42 152.003 203.522 151.106 202.82 149.987C202.117 148.842 201.766 147.593 201.766 146.241V124.347H207.932V146.241C207.932 146.709 208.036 147.06 208.244 147.294C208.478 147.502 208.791 147.619 209.181 147.645C209.649 147.671 210.248 147.658 210.976 147.606C211.731 147.528 212.316 147.45 212.732 147.372L214.059 153.382ZM198.019 132.425H213.942V138.162H198.019V132.425ZM218.902 162.475L224.756 148.66L230.454 151.08L225.615 162.475H218.902ZM223.742 151.08L231.781 132.542H238.493L230.454 151.08H223.742ZM223.898 151.587L215.117 132.542H221.907L229.517 149.909L223.898 151.587Z" fill="#7FA2F6"/>
<ellipse cx="301.5" cy="281.412" rx="6.5" ry="8.41177" fill="#DF8C8E"/>
</svg>
