<svg width="350" height="58" viewBox="0 0 350 58" fill="none" xmlns="http://www.w3.org/2000/svg">
<rect width="350" height="58" rx="12" fill="black"/>
<g clip-path="url(#clip0_2118_24568)">
<path d="M118.367 29.4487C118.34 27.7366 119.048 26.4043 120.489 25.4505C119.677 24.2161 118.478 23.5223 116.892 23.3674C116.328 23.3121 115.607 23.4513 114.731 23.7885C113.787 24.1536 113.256 24.3353 113.138 24.3353C112.889 24.3353 112.411 24.1818 111.702 23.8727C110.995 23.5642 110.392 23.4097 109.894 23.4097C109.056 23.4238 108.276 23.6657 107.555 24.1356C106.834 24.6058 106.258 25.2478 105.826 26.0605C105.275 27.0709 105 28.2775 105 29.6799C105 30.9421 105.203 32.2043 105.609 33.4675C105.988 34.6741 106.474 35.7329 107.063 36.6435C107.587 37.4716 108.047 38.0744 108.439 38.4538C109.003 39.0429 109.579 39.3235 110.169 39.295C110.549 39.2806 111.047 39.1336 111.663 38.8523C112.239 38.5871 112.816 38.4538 113.393 38.4538C113.93 38.4538 114.486 38.5861 115.063 38.8523C115.705 39.1336 116.23 39.2734 116.636 39.2734C117.239 39.2456 117.802 38.9722 118.326 38.4538C118.509 38.2849 118.709 38.0537 118.925 37.7594C119.142 37.4644 119.381 37.1137 119.643 36.7074C119.826 36.413 120.006 36.0974 120.184 35.7605C120.361 35.4239 120.521 35.0666 120.665 34.6872C120.73 34.5329 120.789 34.3754 120.842 34.214C120.894 34.0529 120.947 33.8886 120.999 33.7199C120.514 33.4963 120.075 33.179 119.682 32.7724C118.818 31.8759 118.379 30.7676 118.366 29.449L118.367 29.4487Z" fill="white"/>
<path d="M115.89 21.867C116.584 20.9551 116.932 19.9731 116.932 18.9208V18.7109C116.932 18.6402 116.925 18.5705 116.912 18.5001C116.427 18.5282 115.913 18.6896 115.369 18.9837C114.825 19.2787 114.377 19.651 114.022 20.0992C113.315 20.9836 112.961 21.9298 112.961 22.9399V23.1393C112.961 23.2032 112.967 23.2693 112.98 23.34C114.068 23.452 115.038 22.9609 115.89 21.8673V21.867Z" fill="white"/>
</g>
<path d="M136.484 34.5H134.312L138.297 23.1875H140.797L144.797 34.5H142.625L141.688 31.7031H137.422L136.484 34.5ZM137.969 30.0625H141.141L139.594 25.5H139.5L137.969 30.0625ZM146.047 37.6875V26.0156H148V27.4062H148.125C148.438 26.7969 149.062 25.9062 150.562 25.9062C152.516 25.9062 154.062 27.4375 154.062 30.2656C154.062 33.0625 152.562 34.6562 150.562 34.6562C149.094 34.6562 148.438 33.7812 148.125 33.1562H148.047V37.6875H146.047ZM148 30.25C148 31.9062 148.719 33.0156 150.016 33.0156C151.328 33.0156 152.031 31.8594 152.031 30.25C152.031 28.6719 151.344 27.5312 150.016 27.5312C148.719 27.5312 148 28.6094 148 30.25ZM155.625 37.6875V26.0156H157.578V27.4062H157.703C158.016 26.7969 158.641 25.9062 160.141 25.9062C162.094 25.9062 163.641 27.4375 163.641 30.2656C163.641 33.0625 162.141 34.6562 160.141 34.6562C158.672 34.6562 158.016 33.7812 157.703 33.1562H157.625V37.6875H155.625ZM157.578 30.25C157.578 31.9062 158.297 33.0156 159.594 33.0156C160.906 33.0156 161.609 31.8594 161.609 30.25C161.609 28.6719 160.922 27.5312 159.594 27.5312C158.297 27.5312 157.578 28.6094 157.578 30.25ZM167.203 23.1875V34.5H165.203V23.1875H167.203ZM172.875 34.6719C170.312 34.6719 168.75 32.9688 168.75 30.3125C168.75 27.6875 170.344 25.9062 172.766 25.9062C174.844 25.9062 176.641 27.2031 176.641 30.1875V30.8125H170.719C170.742 32.2578 171.594 33.1094 172.891 33.1094C173.766 33.1094 174.359 32.7344 174.609 32.2344H176.562C176.203 33.7031 174.844 34.6719 172.875 34.6719ZM170.734 29.4531H174.734C174.719 28.2969 173.953 27.4531 172.797 27.4531C171.594 27.4531 170.797 28.3672 170.734 29.4531ZM190.609 32.8125V34.25H177.703V32.8125H183.266V30.5156H179.234V25.8906H187.359V24.1406H179.203V22.7344H189.078V27.2656H180.969V29.0938H189.406V30.5156H184.984V32.8125H190.609ZM200.672 25.1562C200.656 27.75 202.016 30.3438 204.312 31.3281L203.281 32.7188C201.656 31.9688 200.461 30.4688 199.812 28.625C199.164 30.6172 197.953 32.2422 196.234 33.0469L195.172 31.5938C197.531 30.5781 198.906 27.875 198.906 25.1562V22.9062H200.672V25.1562ZM207.078 21.7656V35.9062H205.328V21.7656H207.078ZM214.219 24.2188C214.219 25.9531 215.344 27.6719 217.562 28.4062L216.688 29.75C215.109 29.2266 213.984 28.1641 213.375 26.8438C212.742 28.2891 211.57 29.4375 209.922 30L209 28.6562C211.281 27.9062 212.469 26.0781 212.469 24.2188V24.0469H209.484V22.6562H217.156V24.0469H214.219V24.2188ZM220.297 21.7656V25.2969H222.266V26.75H220.297V30.2812H218.562V21.7656H220.297ZM220.297 30.9375V35.8906H218.562V32.3281H210.891V30.9375H220.297ZM234.047 21.7656V27.3906H236.219V28.8281H234.047V35.8906H232.328V21.7656H234.047ZM231.234 23.9375V25.3281H222.906V23.9375H226.25V21.9688H227.984V23.9375H231.234ZM227.125 26.25C229.156 26.25 230.672 27.625 230.672 29.5781C230.672 31.5312 229.156 32.8906 227.125 32.8906C225.062 32.8906 223.547 31.5312 223.562 29.5781C223.547 27.625 225.062 26.25 227.125 26.25ZM227.125 27.6719C226.016 27.6719 225.219 28.4219 225.219 29.5781C225.219 30.7344 226.016 31.4688 227.125 31.4531C228.203 31.4688 229 30.7344 229.016 29.5781C229 28.4219 228.203 27.6719 227.125 27.6719ZM248.609 21.7656V35.8906H246.859V21.7656H248.609ZM244.391 23.2656C244.391 27.4688 242.766 31.0469 237.812 33.3906L236.906 32C240.602 30.2422 242.32 27.8516 242.625 24.6406H237.625V23.2656H244.391Z" fill="white"/>
<defs>
<clipPath id="clip0_2118_24568">
<rect width="16" height="21" fill="white" transform="translate(105 18.5)"/>
</clipPath>
</defs>
</svg>
