<svg width="350" height="58" viewBox="0 0 350 58" fill="none" xmlns="http://www.w3.org/2000/svg">
<rect width="350" height="58" rx="12" fill="#FEE500"/>
<path fill-rule="evenodd" clip-rule="evenodd" d="M114 19.7917C108.615 19.7917 104.25 23.3142 104.25 27.6595C104.25 30.4687 106.075 32.9338 108.82 34.3257C108.671 34.8528 107.86 37.7169 107.828 37.9419C107.828 37.9419 107.809 38.1109 107.916 38.1754C108.023 38.2399 108.148 38.1898 108.148 38.1898C108.455 38.146 111.706 35.8092 112.268 35.4035C112.83 35.4849 113.409 35.5272 114 35.5272C119.385 35.5272 123.75 32.0048 123.75 27.6595C123.75 23.3142 119.385 19.7917 114 19.7917Z" fill="black"/>
<path d="M142.812 23.1562C142.812 27.4219 141.641 31.0781 136.438 33.6719L135.484 32.3594C137.93 31.1484 139.383 29.7422 140.203 28.0625L135.812 28.4844L135.594 26.9844L140.734 26.6562C140.914 26 141.023 25.3047 141.078 24.5625H136.328V23.1562H142.812ZM146.531 21.7656V27.2969H148.625V28.7188H146.531V35.8594H144.797V21.7656H146.531ZM156.641 23.1562C156.641 27.4219 155.469 31.0781 150.266 33.6719L149.312 32.3594C151.758 31.1484 153.211 29.7422 154.031 28.0625L149.641 28.4844L149.422 26.9844L154.562 26.6562C154.742 26 154.852 25.3047 154.906 24.5625H150.156V23.1562H156.641ZM160.359 21.7656V27.2969H162.453V28.7188H160.359V35.8594H158.625V21.7656H160.359ZM169.547 22.5625C172.578 22.5625 174.812 24.0781 174.812 26.375C174.812 28.4922 172.992 29.9062 170.406 30.1562V32.75H176.031V34.1719H163.125V32.75H168.688V30.1562C166.117 29.9062 164.297 28.4922 164.312 26.375C164.297 24.0781 166.531 22.5625 169.547 22.5625ZM169.547 23.9688C167.484 23.9531 166 24.8906 166.016 26.375C166 27.9062 167.484 28.8125 169.547 28.8125C171.641 28.8125 173.109 27.9062 173.109 26.375C173.109 24.8906 171.641 23.9531 169.547 23.9688ZM189.859 32.8125V34.25H176.953V32.8125H182.516V30.5156H178.484V25.8906H186.609V24.1406H178.453V22.7344H188.328V27.2656H180.219V29.0938H188.656V30.5156H184.234V32.8125H189.859ZM199.922 25.1562C199.906 27.75 201.266 30.3438 203.562 31.3281L202.531 32.7188C200.906 31.9688 199.711 30.4688 199.062 28.625C198.414 30.6172 197.203 32.2422 195.484 33.0469L194.422 31.5938C196.781 30.5781 198.156 27.875 198.156 25.1562V22.9062H199.922V25.1562ZM206.328 21.7656V35.9062H204.578V21.7656H206.328ZM213.469 24.2188C213.469 25.9531 214.594 27.6719 216.812 28.4062L215.938 29.75C214.359 29.2266 213.234 28.1641 212.625 26.8438C211.992 28.2891 210.82 29.4375 209.172 30L208.25 28.6562C210.531 27.9062 211.719 26.0781 211.719 24.2188V24.0469H208.734V22.6562H216.406V24.0469H213.469V24.2188ZM219.547 21.7656V25.2969H221.516V26.75H219.547V30.2812H217.812V21.7656H219.547ZM219.547 30.9375V35.8906H217.812V32.3281H210.141V30.9375H219.547ZM233.297 21.7656V27.3906H235.469V28.8281H233.297V35.8906H231.578V21.7656H233.297ZM230.484 23.9375V25.3281H222.156V23.9375H225.5V21.9688H227.234V23.9375H230.484ZM226.375 26.25C228.406 26.25 229.922 27.625 229.922 29.5781C229.922 31.5312 228.406 32.8906 226.375 32.8906C224.312 32.8906 222.797 31.5312 222.812 29.5781C222.797 27.625 224.312 26.25 226.375 26.25ZM226.375 27.6719C225.266 27.6719 224.469 28.4219 224.469 29.5781C224.469 30.7344 225.266 31.4688 226.375 31.4531C227.453 31.4688 228.25 30.7344 228.266 29.5781C228.25 28.4219 227.453 27.6719 226.375 27.6719ZM247.859 21.7656V35.8906H246.109V21.7656H247.859ZM243.641 23.2656C243.641 27.4688 242.016 31.0469 237.062 33.3906L236.156 32C239.852 30.2422 241.57 27.8516 241.875 24.6406H236.875V23.2656H243.641Z" fill="black"/>
</svg>
